<svg xmlns="http://www.w3.org/2000/svg" style="display:none">

  <!-- DANZA -->
  <symbol id="icon-dance" viewBox="0 0 24 24" fill="none" stroke="currentColor" stroke-width="2">
    <circle cx="12" cy="5" r="2"/>
    <path d="M12 7v5l3 3M12 9l-3 2"/>
  </symbol>

  <symbol id="icon-group" viewBox="0 0 24 24" fill="none" stroke="currentColor" stroke-width="2">
    <circle cx="9" cy="8" r="2"/>
    <circle cx="15" cy="8" r="2"/>
    <path d="M5 18c0-2 4-3 4-3s4 1 4 3"/>
    <path d="M11 18c0-2 4-3 4-3s4 1 4 3"/>
  </symbol>

  <symbol id="icon-stage" viewBox="0 0 24 24" fill="none" stroke="currentColor" stroke-width="2">
    <rect x="3" y="10" width="18" height="6" rx="1"/>
    <path d="M7 10V6M17 10V6"/>
  </symbol>

  <!-- FOTOGRAFÍA -->
  <symbol id="icon-camera" viewBox="0 0 24 24" fill="none" stroke="currentColor" stroke-width="2">
    <rect x="3" y="7" width="18" height="12" rx="2"/>
    <circle cx="12" cy="13" r="3"/>
  </symbol>

  <symbol id="icon-light" viewBox="0 0 24 24" fill="none" stroke="currentColor" stroke-width="2">
    <circle cx="12" cy="10" r="4"/>
    <path d="M12 2v2M12 20v2M4 10H2M22 10h-2"/>
  </symbol>

</svg>